# xmcd
#
# Track frame offsets:
#	150
#	14458
#	26176
#	39689
#	52300
#	65479
#	78666
#	92147
#	100204
#	112367
#	126877
#	139593
#	152696
#	164764
#	177578
#
# Disc length: 2548 seconds
#
# Revision: 1
# Processed by: cddbd v1.5.1PL2 Copyright (c) Steve Scherf et al.
# Submitted via: audiograbber 1.83.01
#
DISCID=e209f20f
DTITLE=Various Artist - Blues Legends
DYEAR=2003
DGENRE=Blues
TTITLE0=Bessie Smith - St. Louis Blues
TTITLE1=Leadbelly - CC Rider
TTITLE2=Robert Johnson - Sweet Home Chikago
TTITLE3=T-Bone Walker - Stormy Monday Blues
TTITLE4=Roy Brown - Cadillac Baby
TTITLE5=Howling Wolf - The wolf is at your door
TTITLE6=Ray Charles - Baby let me hold your hand
TTITLE7=Loyd Price - Lawdy Miss Clawdy
TTITLE8=Little Walte - Juke
TTITLE9=John Lee Hooker - Sugar Mama
TTITLE10=Big Mama Thornton - Hound Dog
TTITLE11=B.B. King - Woke up this morning
TTITLE12=Fats Domino - Please don`t leave me
TTITLE13=Muddy Waters - Hootchie Coochie Man
TTITLE14=Joe Turner - Shake, Rattle and Roll
EXTD=
EXTT0=
EXTT1=
EXTT2=
EXTT3=
EXTT4=
EXTT5=
EXTT6=
EXTT7=
EXTT8=
EXTT9=
EXTT10=
EXTT11=
EXTT12=
EXTT13=
EXTT14=
PLAYORDER=
